<svg xmlns="http://www.w3.org/2000/svg" version="1.1" width="30" height="30" x="0" y="0" viewBox="0 0 256 256" style="enable-background:new 0 0 512 512" xml:space="preserve" class=""><g><path xmlns="http://www.w3.org/2000/svg" d="m179.915 109.999c0-13.255 4.029-24 9-24h.015c.532.003.892-1.402.686-2.709-.451-2.858-.701-5.996-.701-9.291 0-13.254 4.029-23.999 9-23.999-13.254.001-23.999 10.745-23.999 23.999 0 3.295.666 6.433 1.869 9.291.55 1.307-.411 2.712-1.83 2.709h-.04c-13.255 0-24 10.745-24 24s10.745 24 24 24c.401 0 .799-.011 1.195-.03v.03h13.805c-4.97 0-9-10.745-9-24z" fill="#a4d4a0" data-original="#a4d4a0" style=""></path><path xmlns="http://www.w3.org/2000/svg" d="m188.915 133.999h.448v-.03c-.148.019-.297.03-.448.03z" fill="#65bc49" data-original="#65bc49" style=""></path><path xmlns="http://www.w3.org/2000/svg" d="m221.915 85.999h-.034c-1.425.002-2.378-1.411-1.826-2.725 1.565-3.726 2.218-7.93 1.672-12.334-1.351-10.896-10.192-19.6-21.106-20.793-.907-.099-1.806-.147-2.694-.148.331.001.665.049 1.003.148 4.093 1.193 7.408 9.897 7.915 20.793.205 4.405-.04 8.608-.627 12.334-.207 1.314.151 2.727.685 2.725h.013c4.971 0 9 10.745 9 24 0 12.874-3.801 23.378-8.574 23.971v.029h15.71v-.029c12.727-.594 22.864-11.097 22.864-23.971-.001-13.255-10.746-24-24.001-24z" fill="#419b46" data-original="#419b46" style=""></path><path xmlns="http://www.w3.org/2000/svg" d="m197.915 50h.011c-.003-.001-.007 0-.011 0z" fill="#65bc49" data-original="#65bc49" style=""></path><path xmlns="http://www.w3.org/2000/svg" d="m215.915 109.999c0-13.255-4.029-24-9-24h-.013c-.534.002-.892-1.411-.685-2.725.587-3.726.832-7.93.627-12.334-.506-10.896-3.822-19.6-7.915-20.793-.338-.099-.672-.147-1.003-.148-.004 0-.008 0-.011 0-4.97.001-9 10.745-9 23.999 0 3.295.25 6.433.701 9.291.206 1.307-.154 2.712-.686 2.709h-.015c-4.971 0-9 10.745-9 24s4.029 24 9 24c.15 0 .3-.011.448-.03v.03h17.978v-.029c4.773-.592 8.574-11.096 8.574-23.97z" fill="#65bc49" data-original="#65bc49" style=""></path><g xmlns="http://www.w3.org/2000/svg" fill="#1c2d6b"><path d="m223.052 137h-47.942c-.103 0-.204-.005-.304-.015-.296.01-.593.015-.892.015-14.888 0-27-12.112-27-27 0-14.403 11.336-26.209 25.556-26.962-1.032-2.896-1.554-5.929-1.554-9.038 0-7.662 3.273-14.991 8.98-20.108 5.703-5.113 13.37-7.56 21.049-6.726 12.251 1.339 22.242 11.183 23.758 23.406.524 4.236.061 8.515-1.343 12.468 14.236.772 25.554 12.569 25.554 26.96 0 14.305-11.073 26.058-25.291 26.944-.185.036-.376.056-.571.056zm-47.517-6h47.103c.09-.013.182-.021.274-.025 11.217-.523 20.003-9.736 20.003-20.975 0-11.58-9.421-21-21-21-.002 0-.005 0-.007 0-1.709 0-3.261-.827-4.184-2.213-.921-1.383-1.084-3.13-.436-4.673 1.414-3.366 1.919-7.102 1.46-10.803-1.177-9.494-8.938-17.14-18.455-18.18-6.064-.666-11.889 1.193-16.391 5.229-4.439 3.981-6.986 9.682-6.986 15.641 0 2.816.55 5.551 1.634 8.127.646 1.535.484 3.276-.434 4.656-.923 1.387-2.476 2.216-4.156 2.216-.003 0-.006 0-.009 0-11.615 0-21.036 9.42-21.036 21s9.421 21 21 21c.352 0 .7-.01 1.048-.027.191-.01.385 0 .572.027zm-1.621-48c-.001 0-.001 0 0 0z" fill="#1c2d6b" data-original="#1c2d6b" style=""></path><path d="m197.917 155c-1.657 0-3-1.343-3-3v-66c0-1.657 1.343-3 3-3s3 1.343 3 3v66c0 1.657-1.343 3-3 3z" fill="#1c2d6b" data-original="#1c2d6b" style=""></path><path d="m198.57 112.345c-.768 0-1.535-.293-2.121-.879-1.172-1.171-1.172-3.071 0-4.242l8.485-8.485c1.172-1.172 3.07-1.172 4.242 0 1.172 1.171 1.172 3.071 0 4.242l-8.485 8.485c-.586.586-1.353.879-2.121.879z" fill="#1c2d6b" data-original="#1c2d6b" style=""></path><path d="m197.917 120.831c-.768 0-1.535-.293-2.121-.879l-8.485-8.485c-1.172-1.171-1.172-3.071 0-4.242 1.172-1.172 3.07-1.172 4.242 0l8.485 8.485c1.172 1.171 1.172 3.071 0 4.242-.586.586-1.353.879-2.121.879z" fill="#1c2d6b" data-original="#1c2d6b" style=""></path></g><path xmlns="http://www.w3.org/2000/svg" d="m140.915 110.001-54 96h33l54-96z" fill="#d3ba2a" data-original="#d3ba2a" style=""></path><path xmlns="http://www.w3.org/2000/svg" d="m77.915 110.001-60 96h33.001l60-96z" fill="#ede49d" data-original="#ede49d" style=""></path><path xmlns="http://www.w3.org/2000/svg" d="m110.916 110.001-60 96h35.999l54-96z" fill="#eee045" data-original="#eee045" style=""></path><path xmlns="http://www.w3.org/2000/svg" d="m119.915 209h-102c-1.091 0-2.096-.592-2.624-1.546s-.498-2.119.08-3.044l60-96c.548-.877 1.51-1.41 2.544-1.41h96c1.065 0 2.052.565 2.59 1.485s.548 2.057.024 2.985l-54 96c-.531.946-1.53 1.53-2.614 1.53zm-96.587-6h94.832l50.625-90h-89.207z" fill="#1c2d6b" data-original="#1c2d6b" style=""></path><path xmlns="http://www.w3.org/2000/svg" d="m119.915 206.001h46.912l7.088-96z" fill="#ef7f72" data-original="#ef7f72" style=""></path><path xmlns="http://www.w3.org/2000/svg" d="m173.915 110.001 7.088 96h46.912z" fill="#e8383b" data-original="#e8383b" style=""></path><path xmlns="http://www.w3.org/2000/svg" d="m166.827 206.001h14.176l-7.088-96z" fill="#e95947" data-original="#e95947" style=""></path><path xmlns="http://www.w3.org/2000/svg" d="m227.915 209h-108c-1.065 0-2.052-.565-2.59-1.485s-.548-2.057-.024-2.985l54-96c.531-.945 1.53-1.529 2.614-1.529s2.083.584 2.614 1.529l54 96c.523.929.514 2.065-.024 2.985s-1.525 1.485-2.59 1.485zm-102.87-6h97.74l-48.87-86.881z" fill="#1c2d6b" data-original="#1c2d6b" style=""></path><path xmlns="http://www.w3.org/2000/svg" d="m145.485 199.57c16.925-9.117 28.43-26.998 28.43-47.569v-42s-11.097 68.069-28.43 89.569z" fill="#d3ba2a" data-original="#d3ba2a" style=""></path><path xmlns="http://www.w3.org/2000/svg" d="m119.915 206.001c5.642 0 11.081-.868 16.193-2.473l37.807-93.527z" fill="#ede49d" data-original="#ede49d" style=""></path><path xmlns="http://www.w3.org/2000/svg" d="m136.108 203.527c3.271-1.027 6.407-2.357 9.377-3.957 17.333-21.5 28.43-89.569 28.43-89.569z" fill="#eee045" data-original="#eee045" style=""></path><path xmlns="http://www.w3.org/2000/svg" d="m202.345 199.57c-16.925-9.117-28.43-26.998-28.43-47.569v-42s11.097 68.069 28.43 89.569z" fill="#d3ba2a" data-original="#d3ba2a" style=""></path><path xmlns="http://www.w3.org/2000/svg" d="m227.915 206.001c-5.642 0-11.081-.868-16.193-2.473l-37.807-93.527z" fill="#ede49d" data-original="#ede49d" style=""></path><path xmlns="http://www.w3.org/2000/svg" d="m211.722 203.527c-3.271-1.027-6.407-2.357-9.377-3.957-17.333-21.5-28.43-89.569-28.43-89.569z" fill="#eee045" data-original="#eee045" style=""></path><path xmlns="http://www.w3.org/2000/svg" d="m119.915 209c-1.065 0-2.052-.565-2.59-1.485s-.548-2.057-.024-2.985l54-96c.668-1.188 2.052-1.777 3.374-1.431 1.32.345 2.24 1.538 2.24 2.902v42c0 31.429-25.57 56.999-57 56.999zm51-87.547-45.718 81.276c25.649-2.651 45.718-24.39 45.718-50.729z" fill="#1c2d6b" data-original="#1c2d6b" style=""></path><path xmlns="http://www.w3.org/2000/svg" d="m227.915 209c-31.43 0-57-25.57-57-57v-42c0-1.364.92-2.557 2.24-2.902 1.318-.346 2.706.242 3.374 1.431l54 96c.523.929.514 2.065-.024 2.985s-1.525 1.486-2.59 1.486zm-51-87.547v30.547c0 26.338 20.068 48.077 45.718 50.729z" fill="#1c2d6b" data-original="#1c2d6b" style=""></path><path xmlns="http://www.w3.org/2000/svg" d="m45.422 152.938c1.105.118 3.679 1.171 4.672 1.576l-12.937 20.699 22.129-35.407c-1.758-.737-3.634-1.236-5.591-1.449-12.442-1.36-22.967 8.348-22.967 20.514 0 1.866.27 3.665.735 5.384.045-6.666 6.955-12.063 13.959-11.317z" fill="#419b46" data-original="#419b46" style=""></path><path xmlns="http://www.w3.org/2000/svg" d="m20.791 181.272c0-6.275 3.497-12.079 9.936-12.079-11.4 0-20.642 9.242-20.642 20.642 0 6.556 3.064 12.388 7.831 16.167l8.898-14.238c-3.6-2.014-6.023-6.884-6.023-10.492z" fill="#a4d4a0" data-original="#a4d4a0" style=""></path><path xmlns="http://www.w3.org/2000/svg" d="m37.157 175.213-10.343 16.55z" fill="#eee045" data-original="#eee045" style=""></path><path xmlns="http://www.w3.org/2000/svg" d="m50.094 154.514c-.993-.405-3.567-1.459-4.672-1.576-7.004-.746-13.915 4.651-13.959 11.318.241.891.519 1.768.872 2.607.473 1.125-.354 2.332-1.574 2.33-.012 0-.023 0-.035 0-6.439 0-9.936 5.804-9.936 12.079 0 3.609 2.423 8.479 6.023 10.491l10.344-16.55z" fill="#65bc49" data-original="#65bc49" style=""></path><path xmlns="http://www.w3.org/2000/svg" d="m17.915 209c-.672 0-1.33-.226-1.863-.649-5.698-4.518-8.967-11.267-8.967-18.518 0-12.424 9.634-22.641 21.823-23.572-.784-2.376-1.181-4.855-1.181-7.39 0-6.708 2.866-13.125 7.863-17.606 4.995-4.478 11.719-6.624 18.431-5.89 2.2.241 4.361.801 6.424 1.665.812.34 1.434 1.02 1.7 1.858s.151 1.752-.315 2.499l-41.371 66.193c-.452.724-1.192 1.221-2.033 1.366-.17.03-.341.044-.511.044zm12.84-36.808c-9.756 0-17.67 7.914-17.67 17.642 0 4.26 1.514 8.289 4.236 11.456l37.348-59.757c-.431-.082-.864-.146-1.3-.193-5.093-.557-9.991 1.002-13.772 4.393-3.729 3.344-5.869 8.133-5.869 13.139 0 2.366.462 4.663 1.372 6.827.611 1.453.457 3.098-.411 4.402-.873 1.31-2.339 2.092-3.924 2.092-.004-.001-.007-.001-.01-.001zm-.03-6c-.001 0-.002 0-.003 0h.005c-.001 0-.001 0-.002 0z" fill="#1c2d6b" data-original="#1c2d6b" style=""></path></g></svg>